<svg width="22" height="22" viewBox="0 0 22 22" fill="none" xmlns="http://www.w3.org/2000/svg">
<path fill-rule="evenodd" clip-rule="evenodd" d="M21.213 6.76657C21.5811 7.65329 21.3516 8.67573 20.6398 9.32001C20.165 9.74883 19.8933 10.3581 19.8914 10.9978C19.8895 11.6375 20.1576 12.2484 20.6298 12.68C21.3398 13.3231 21.5697 14.3428 21.2043 15.2284C20.8388 16.114 19.9567 16.6748 18.9998 16.63C18.3628 16.6013 17.7432 16.8417 17.2923 17.2926C16.8415 17.7434 16.601 18.3631 16.6298 19C16.6506 19.9338 16.0974 20.785 15.2357 21.1452C14.374 21.5053 13.3796 21.3009 12.7298 20.63C12.2995 20.1566 11.6895 19.8866 11.0498 19.8866C10.41 19.8866 9.79999 20.1566 9.36977 20.63C8.73563 21.3829 7.68851 21.6413 6.77694 21.2698C5.86536 20.8983 5.29707 19.9817 5.36977 19C5.3985 18.3631 5.15805 17.7434 4.7072 17.2926C4.25636 16.8417 3.6367 16.6013 2.99977 16.63C2.06602 16.6509 1.21479 16.0977 0.854624 15.2359C0.494459 14.3742 0.698875 13.3798 1.36977 12.73C1.84323 12.2998 2.11317 11.6897 2.11317 11.05C2.11317 10.4103 1.84323 9.80024 1.36977 9.37001C0.616883 8.73587 0.358502 7.68876 0.72997 6.77718C1.10144 5.86561 2.01809 5.29732 2.99977 5.37001C3.6367 5.39875 4.25636 5.15829 4.7072 4.70745C5.15805 4.25661 5.3985 3.63695 5.36977 3.00001C5.32497 2.04304 5.88579 1.16096 6.77138 0.795516C7.65696 0.430072 8.67664 0.659944 9.31977 1.37001C9.74999 1.84347 10.36 2.11342 10.9998 2.11342C11.6395 2.11342 12.2495 1.84347 12.6798 1.37001C13.3229 0.659944 14.3426 0.430072 15.2282 0.795516C16.1137 1.16096 16.6746 2.04304 16.6298 3.00001C16.601 3.63695 16.8415 4.25661 17.2923 4.70745C17.7432 5.15829 18.3628 5.39875 18.9998 5.37001C19.9586 5.32065 20.8448 5.87986 21.213 6.76657ZM9.15977 8.75001C9.15977 8.3358 8.82398 8.00001 8.40977 8.00001C7.9978 8.0054 7.66515 8.33805 7.65977 8.75001C7.65977 9.16423 7.99555 9.50001 8.40977 9.50001C8.82398 9.50001 9.15977 9.16423 9.15977 8.75001ZM13.6798 14C13.2656 14 12.9298 13.6642 12.9298 13.25C12.9298 12.8358 13.2656 12.5 13.6798 12.5C14.094 12.5 14.4298 12.8358 14.4298 13.25C14.4244 13.662 14.0917 13.9946 13.6798 14ZM8.64977 14.41L14.4098 8.64001V8.65001C14.6851 8.3545 14.677 7.894 14.3914 7.60839C14.1058 7.32278 13.6453 7.31465 13.3498 7.59001L7.58977 13.35C7.44682 13.4893 7.3662 13.6804 7.3662 13.88C7.3662 14.0796 7.44682 14.2707 7.58977 14.41C7.72761 14.5547 7.92001 14.6345 8.11977 14.63C8.31883 14.631 8.50988 14.5516 8.64977 14.41Z" fill="black"/>
</svg>
