<svg width="22" height="22" viewBox="0 0 22 22" fill="none" xmlns="http://www.w3.org/2000/svg">
<path d="M10 11C10 12.1046 9.10457 13 8 13C6.89543 13 6 12.1046 6 11C6 9.89543 6.89543 9 8 9C9.10457 9 10 9.89543 10 11ZM10 11L15.882 11C15.9543 11 16.0204 11.0409 16.0528 11.1056V11.1056C16.3343 11.6686 16.3343 12.3314 16.0528 12.8944L16 13M13 13L13.0528 12.8944C13.3343 12.3314 13.3343 11.6686 13.0528 11.1056L13 11M21 11C21 16.5228 16.5228 21 11 21C5.47715 21 1 16.5228 1 11C1 5.47715 5.47715 1 11 1C16.5228 1 21 5.47715 21 11Z" stroke="#2D264B" stroke-width="1.5" stroke-linecap="round"/>
</svg>
