<svg width="22" height="22" viewBox="0 0 22 22" fill="none" xmlns="http://www.w3.org/2000/svg">
<path fill-rule="evenodd" clip-rule="evenodd" d="M19.7399 5.86011L20.9999 14.2001C21.5099 17.8501 18.9999 21.1701 15.5999 21.2001H6.33987C2.99987 21.2001 0.459869 17.8501 0.999869 14.2001L2.25987 5.86011C2.55899 3.10248 4.82855 0.97743 7.59987 0.860107H14.3999C17.1712 0.97743 19.4407 3.10248 19.7399 5.86011ZM7.09987 6.81011C7.10536 8.96174 8.84824 10.7046 10.9999 10.7101C13.1515 10.7046 14.8944 8.96174 14.8999 6.81011C14.8999 6.39589 14.5641 6.06011 14.1499 6.06011C13.7357 6.06011 13.3999 6.39589 13.3999 6.81011C13.3999 8.13559 12.3254 9.21011 10.9999 9.21011C9.67439 9.21011 8.59987 8.13559 8.59987 6.81011C8.59987 6.39589 8.26408 6.06011 7.84987 6.06011C7.43565 6.06011 7.09987 6.39589 7.09987 6.81011Z" fill="black"/>
</svg>
