<svg width="18" height="18" viewBox="0 0 18 18" fill="none" xmlns="http://www.w3.org/2000/svg">
<path fill-rule="evenodd" clip-rule="evenodd" d="M0.217987 1.09202C0 1.51984 0 2.0799 0 3.2V3.81385L17.9895 2.17845C17.9711 1.68953 17.9206 1.36404 17.782 1.09202C17.5903 0.715695 17.2843 0.409734 16.908 0.217987C16.4802 0 15.9201 0 14.8 0H3.2C2.0799 0 1.51984 0 1.09202 0.217987C0.715695 0.409734 0.409734 0.715695 0.217987 1.09202ZM18 4.18574L13.1352 4.62799L15.6414 17.9947C16.2329 17.9818 16.6039 17.937 16.908 17.782C17.2843 17.5903 17.5903 17.2843 17.782 16.908C18 16.4802 18 15.9201 18 14.8V4.18574ZM13.6076 18L11.1344 4.80988L0 5.8221V14.8C0 15.9201 0 16.4802 0.217987 16.908C0.409734 17.2843 0.715695 17.5903 1.09202 17.782C1.51984 18 2.0799 18 3.2 18H13.6076ZM9.5 12.0294C9.5 14.1878 7.36026 15.7041 6.42687 16.2628C6.16232 16.4211 5.83768 16.4211 5.57313 16.2628C4.63974 15.7041 2.5 14.1878 2.5 12.0294C2.5 9.91176 4.19587 8.5 6 8.5C7.86667 8.5 9.5 9.91176 9.5 12.0294Z" fill="#222222"/>
<circle cx="6" cy="12" r="1" fill="#222222"/>
</svg>
